# xmcd
#
# Track frame offsets: 
#        200
#        12850
#        26542
#        43822
#        52622
#        76320
#        91130
#        107965
#        121032
#        134817
#        149145
#        169775
#
# Disc length: 2705 seconds
#
# Revision: 2
# Processed by: cddbd v1.5.2PL0 Copyright (c) Steve Scherf et al.
# Submitted via: ExactAudioCopy v0.99pb5
#
DISCID=9c0a8f0c
DTITLE=Peter Rowan - The Walls of Time
DYEAR=1991
DGENRE=Bluegrass
TTITLE0=Roving Gambler
TTITLE1=Lone Pigrim
TTITLE2=Raglan Road (Dawning of the Day)
TTITLE3=Going Up on the Mountain
TTITLE4=Casey's Last Ride
TTITLE5=Old, Old House
TTITLE6=Hiroshima Mon Amour
TTITLE7=Willow Garden
TTITLE8=Moonshiner
TTITLE9=Thirsty in the Rain
TTITLE10=Walls of Time
TTITLE11=Plains of Waterloo
EXTD=
EXTT0=
EXTT1=
EXTT2=
EXTT3=
EXTT4=
EXTT5=
EXTT6=
EXTT7=
EXTT8=
EXTT9=
EXTT10=Peter Rowan
EXTT11=
PLAYORDER=
